# xmcd CD database file
#
# Track frame offsets:
#	150
#	16365
#	34080
#	49663
#	71536
#	88627
#	107893
#	122676
#	136216
#	154330
#	170190
#
# Disc length: 2548 seconds
#
# Revision: 0
# Processed by: cddbd v1.5.2PL0 Copyright (c) Steve Scherf et al.
# Submitted via: CDex 1.70beta2
#
DISCID=9409f20b
DTITLE=Randy Travis - Around The Bend
DYEAR=2008
DGENRE=Country
TTITLE0=Around The Bend
TTITLE1=You Didn't Have A Good Time
TTITLE2=Every Head Bowed
TTITLE3=Love Is A Gamble
TTITLE4=Faith In You
TTITLE5=Don't Think Twice, It's All Right
TTITLE6=Dig Two Graves
TTITLE7=Turn It Around
TTITLE8=From Your Knees
TTITLE9=Everything That I Own (Has Got A Dent)
TTITLE10='Til I'm Dead And Gone
EXTD=YEAR: 2008
EXTT0=
EXTT1=
EXTT2=
EXTT3=
EXTT4=
EXTT5=
EXTT6=
EXTT7=
EXTT8=
EXTT9=
EXTT10=
PLAYORDER=
